HIERARCHY
ROOT Hips
{
    OFFSET 0.000000 0.000000 0.000000
    CHANNELS 6 Xposition Yposition Zposition Zrotation Xrotation Yrotation
        JOINT Chest
        {
            OFFSET -0.000000 29.391830 -0.000000
            CHANNELS 3 Zrotation Xrotation Yrotation
            JOINT Neck
            {
                OFFSET -0.000000 21.536943 0.000000
                CHANNELS 3 Zrotation Xrotation Yrotation
                JOINT Head
                {
                    OFFSET -0.000000 10.450000 0.000000
                    CHANNELS 3 Zrotation Xrotation Yrotation
                    End Site
                    {
                        OFFSET -0.000000 16.150003 0.000000
                    }
                }
            }
            JOINT LeftCollar
            {
                OFFSET -0.000000 21.536943 0.000000
                CHANNELS 3 Zrotation Xrotation Yrotation
                JOINT LeftShoulder
                {
                    OFFSET 19.500000 -0.000000 0.000000
                    CHANNELS 3 Zrotation Xrotation Yrotation
                    JOINT LeftElbow
                    {
                        OFFSET 20.632557 0.000000 0.000000
                        CHANNELS 3 Zrotation Xrotation Yrotation
                        JOINT LeftWrist
                        {
                            OFFSET 24.683100 0.000000 0.000000
                            CHANNELS 3 Zrotation Xrotation Yrotation
                            End Site
                            {
                                OFFSET 0.000000 -14.250000 0.000000
                            }
                        }
                    }
                }
            }
            JOINT RightCollar
            {
                OFFSET -0.000000 21.536943 0.000000
                CHANNELS 3 Zrotation Xrotation Yrotation
                JOINT RightShoulder
                {
                    OFFSET -19.500000 0.000000 0.000000
                    CHANNELS 3 Zrotation Xrotation Yrotation
                    JOINT RightElbow
                    {
                        OFFSET -20.632557 0.000000 0.000000
                        CHANNELS 3 Zrotation Xrotation Yrotation
                        JOINT RightWrist
                        {
                            OFFSET -24.683100 0.000000 0.000000
                            CHANNELS 3 Zrotation Xrotation Yrotation
                            End Site
                            {
                                OFFSET -0.000000 -14.250000 0.000000
                            }
                        }
                    }
                }
            }
        }
    JOINT LeftHip
    {
        OFFSET 11.400001 0.000000 0.000000
        CHANNELS 3 Zrotation Xrotation Yrotation
        JOINT LeftKnee
        {
            OFFSET -0.000000 -38.134491 0.000000
            CHANNELS 3 Zrotation Xrotation Yrotation
            JOINT LeftAnkle
            {
                OFFSET -0.000000 -39.452507 0.000000
                CHANNELS 3 Zrotation Xrotation Yrotation
                End Site
                {
                    OFFSET -0.000000 -4.750000 16.150003
                }
            }
        }
    }
    JOINT RightHip
    {
        OFFSET -11.400001 0.000000 0.000000
        CHANNELS 3 Zrotation Xrotation Yrotation
        JOINT RightKnee
        {
            OFFSET -0.000000 -38.134491 0.000000
            CHANNELS 3 Zrotation Xrotation Yrotation
            JOINT RightAnkle
            {
                OFFSET -0.000000 -39.452507 0.000000
                CHANNELS 3 Zrotation Xrotation Yrotation
                End Site
                {
                    OFFSET -0.000000 -4.750000 16.150003
                }
            }
        }
    }
}
MOTION
Frames:    5
Frame Time:    0.010000
-59.879349    84.222343    43.980080    -0.547008    5.001269    49.127903    3.150088    3.640790    -9.413895    -11.428549    12.001070    -13.053453    -7.503988    -2.870212    -14.442798    -14.978285    -1.437627    11.101739    -47.919167    18.822077    8.776869    30.116781    -24.503414    -78.216606    85.496803    2.448206    48.264629    14.084980    -2.448274    -21.427441    14.437844    46.306511    2.179830    -14.716195    -3.331802    26.520411    -89.296051    -12.138984    -34.343536    10.301965    -8.120219    -1.687765    -32.185677    63.693104    27.843779    -25.914667    32.802315    1.830122    -4.387205    -32.976471    17.482660    1.859285    44.153416    3.281621    10.615255    -19.691507    4.990443    
-59.970085    84.128479    44.220436    -0.597676    5.094796    48.949585    3.036863    3.754903    -10.063478    -11.360257    12.663065    -12.890124    -7.182897    -3.872148    -14.390797    -14.702936    -1.424003    11.073324    -48.486790    18.446568    10.637079    29.936468    -24.160065    -77.520401    84.796944    1.961221    47.916317    13.685257    -2.525407    -22.588739    15.724309    47.412762    0.894022    -14.040062    -3.141384    26.047932    -89.852303    -12.203849    -34.571857    10.523288    -8.739601    -1.745569    -33.093681    64.219231    29.155495    -26.726652    32.867538    2.803289    -4.195954    -33.486324    17.565554    2.185346    44.880177    2.982588    10.441089    -19.789747    5.244508    
-60.071243    84.002647    44.454369    -0.608149    5.186327    48.875912    2.850477    3.875615    -10.804013    -11.266411    13.408596    -12.686884    -6.841737    -4.944139    -14.301046    -14.479336    -1.420640    11.038010    -48.871479    18.210005    12.276159    29.915745    -23.898752    -76.822754    83.988525    1.524803    47.808304    13.313165    -2.596203    -23.701410    17.134285    48.374027    -0.560994    -13.508542    -3.000053    25.747084    -90.529594    -12.327172    -34.464798    10.769772    -9.360842    -1.846177    -33.782555    64.814926    30.276653    -26.858883    32.160492    3.464963    -4.109960    -34.001804    17.398973    2.450394    45.680210    2.709943    10.291905    -19.888437    5.637223    
-60.180325    83.843292    44.679581    -0.577159    5.272810    48.888813    2.604842    4.010401    -11.607716    -11.127326    14.209912    -12.457406    -6.534428    -6.066870    -14.181793    -14.324248    -1.390466    10.988476    -49.091843    18.067135    13.715412    29.944780    -23.728357    -76.173401    83.208221    1.139976    47.974331    12.972284    -2.665144    -24.792192    18.650980    49.082809    -2.202782    -13.107303    -2.912484    25.655397    -91.244209    -12.525723    -33.933716    11.025349    -9.978989    -1.971501    -34.188648    65.481445    31.128620    -26.351522    30.801517    3.809353    -4.128708    -34.519550    16.994839    2.649055    46.543884    2.490016    10.155405    -19.993553    6.148607    
-60.293686    83.650742    44.894051    -0.502598    5.347443    48.964504    2.317111    4.165474    -12.441628    -10.924251    15.055936    -12.217354    -6.307838    -7.232132    -14.047357    -14.235290    -1.344756    10.921510    -49.202892    18.033422    14.990634    30.113291    -23.687958    -75.535217    82.354561    0.703013    48.287628    12.660398    -2.729846    -25.876432    20.233559    49.461655    -4.020989    -12.813651    -2.871783    25.803934    -91.923141    -12.812756    -32.932114    11.276865    -10.580163    -2.098149    -34.239132    66.213608    31.628172    -25.304884    28.928677    3.890898    -4.242887    -35.029560    16.382181    2.777410    47.457214    2.351092    10.022597    -20.110453    6.746128    
